<?xml version="1.0" encoding="utf-8" ?>
<svg baseProfile="full" height="400px" version="1.1" width="800px" xmlns="http://www.w3.org/2000/svg" xmlns:ev="http://www.w3.org/2001/xml-events" xmlns:xlink="http://www.w3.org/1999/xlink"><defs /><rect fill="#0A0A1E" height="400px" width="800px" x="0" y="0" /><path d="M 555.6184720634176,262.37545188808275 L 555.02,265.16 L 553.01,267.74 L 549.73,269.40 L 545.63,269.55 L 541.45,267.84 L 538.03,264.25 L 536.22,259.19 L 536.64,253.41 L 539.54,247.89 L 544.74,243.73 L 551.59,241.87 L 559.04,242.95 L 565.82,247.12 L 570.64,253.99 L 572.45,262.63 L 570.60,271.71 L 565.09,279.68 L 556.51,285.07 L 546.07,286.71 L 535.41,284.01 L 526.32,277.08 L 520.46,266.75 L 519.08,254.53 L 522.73,242.32 L 531.15,232.19 L 543.26,225.96 L 557.27,224.95 L 570.97,229.64 L 582.07,239.61 L 588.56,253.52 L 589.11,269.31 L 583.28,284.45 L 571.70,296.43 L 555.95,303.09 L 538.41,303.07 L 521.88,296.02 L 509.11,282.76 L 502.38,265.16 L 503.07,245.89 L 511.43,228.03 L 526.41,214.56 L 545.89,207.86 L 566.86,209.33 L 585.99,219.07 L 600.08,235.84 L 606.63,257.19 L 604.29,279.84 L 593.08,300.17 L 574.48,314.78 L 551.24,321.09 L 526.95,317.77 L 505.50,305.02 L 490.46,284.55 L 484.50,259.42 L 488.89,233.52 L 503.26,211.02 L 525.64,195.66 L 552.66,190.15 L 580.12,195.70 L 603.60,211.77 L 619.19,236.09 L 624.13,264.99 L 617.32,293.96 L 599.49,318.34 L 573.19,334.05 L 542.42,338.33 L 511.99,330.17 L 486.81,310.51 L 471.07,282.21 L 467.56,249.58 L 477.17,217.75 L 498.71,191.84 L 529.03,176.18 L 563.50,173.55 L 596.68,184.69 L 623.22,208.18 L 638.69,240.55 L 640.35,276.82 L 627.58,311.28 L 602.10,338.36 L 567.67,353.55 L 529.62,354.12 L 493.94,339.65 L 466.42,312.11 L 451.63,275.62 L 452.25,235.82 L 468.50,199.00 L 498.13,171.13 L 536.69,156.85 L 578.20,158.76 L 616.09,176.87 L 644.21,208.64 L 657.87,249.27 L 654.58,292.45 L 634.53,331.33 L 600.58,359.59 L 557.88,372.52 L 513.08,367.75 L 473.30,345.69" fill="none" stroke="#3296FF" stroke-width="3" /><text fill="#FF3232" font-family="monospace" font-size="40px" x="30" y="60">COLLATZ CHAOS CIPHER</text><text fill="#C0C0C0" font-family="monospace" font-size="20px" x="30" y="100">REAL FLOAT SPIRAL • 3X+1 LOGIC • CHAOTIC ENTROPY</text></svg>