<?xml version="1.0" encoding="utf-8" ?>
<svg baseProfile="full" height="400px" version="1.1" width="800px" xmlns="http://www.w3.org/2000/svg" xmlns:ev="http://www.w3.org/2001/xml-events" xmlns:xlink="http://www.w3.org/1999/xlink"><defs /><rect fill="#0A0A1E" height="400px" width="800px" x="0" y="0" /><path d="M 405.6184720634176,202.37545188808278 L 405.02,205.16 L 403.01,207.74 L 399.73,209.40 L 395.63,209.55 L 391.45,207.84 L 388.03,204.25 L 386.22,199.19 L 386.64,193.41 L 389.54,187.89 L 394.74,183.73 L 401.59,181.87 L 409.04,182.95 L 415.82,187.12 L 420.64,193.99 L 422.45,202.63 L 420.60,211.71 L 415.09,219.68 L 406.51,225.07 L 396.07,226.71 L 385.41,224.01 L 376.32,217.08 L 370.46,206.75 L 369.08,194.53 L 372.73,182.32 L 381.15,172.19 L 393.26,165.96 L 407.27,164.95 L 420.97,169.64 L 432.07,179.61 L 438.56,193.52 L 439.11,209.31 L 433.28,224.45 L 421.70,236.43 L 405.95,243.09 L 388.41,243.07 L 371.88,236.02 L 359.11,222.76 L 352.38,205.16 L 353.07,185.89 L 361.43,168.03 L 376.41,154.56 L 395.89,147.86 L 416.86,149.33 L 435.99,159.07 L 450.08,175.84 L 456.63,197.19 L 454.29,219.84 L 443.08,240.17 L 424.48,254.78 L 401.24,261.09 L 376.95,257.77 L 355.50,245.02 L 340.46,224.55 L 334.50,199.42 L 338.89,173.52 L 353.26,151.02 L 375.64,135.66 L 402.66,130.15 L 430.12,135.70 L 453.60,151.77 L 469.19,176.09 L 474.13,204.99 L 467.32,233.96 L 449.49,258.34 L 423.19,274.05 L 392.42,278.33 L 361.99,270.17 L 336.81,250.51 L 321.07,222.21 L 317.56,189.58 L 327.17,157.75 L 348.71,131.84 L 379.03,116.18 L 413.50,113.55 L 446.68,124.69 L 473.22,148.18 L 488.69,180.55 L 490.35,216.82 L 477.58,251.28 L 452.10,278.36 L 417.67,293.55 L 379.62,294.12 L 343.94,279.65 L 316.42,252.11 L 301.63,215.62 L 302.25,175.82 L 318.50,139.00 L 348.13,111.13 L 386.69,96.85 L 428.20,98.76 L 466.09,116.87 L 494.21,148.64 L 507.87,189.27 L 504.58,232.45 L 484.53,271.33 L 450.58,299.59 L 407.88,312.52 L 363.08,307.75 L 323.30,285.69" fill="none" stroke="#3296FF" stroke-width="3" /><text fill="#FF3232" font-family="monospace" font-size="40px" x="30" y="60">COLLATZ CHAOS CIPHER</text><text fill="#C0C0C0" font-family="monospace" font-size="20px" x="30" y="100">REAL FLOAT SPIRAL • 3X+1 LOGIC • CHAOTIC ENTROPY</text></svg>